<svg xmlns="http://www.w3.org/2000/svg" viewBox="0 0 19 19"><path d="M10.63.372c1.52.004 1.86.017 2.657.054 1.445.067 2.714.425 3.732 1.457 1.018 1.032 1.372 2.317 1.438 3.78.037.813.05 1.158.053 2.726v1.974c-.004 1.568-.016 1.912-.053 2.725-.066 1.464-.42 2.75-1.438 3.781-1.019 1.032-2.288 1.39-3.732 1.457-.948.044-1.25.054-3.664.054h-.28c-2.16 0-2.474-.012-3.385-.054-1.445-.067-2.713-.425-3.731-1.457-1.019-1.032-1.372-2.317-1.439-3.78-.036-.814-.049-1.158-.052-2.726V8.389C.739 6.82.752 6.476.788 5.663c.067-1.463.42-2.749 1.439-3.78C3.245.85 4.514.493 5.958.426 6.755.389 7.096.376 8.615.372zm-.239 1.622H8.854c-1.681.003-1.998.014-2.822.052-1.012.047-1.95.252-2.673.984-.722.732-.925 1.683-.97 2.708-.038.835-.05 1.156-.052 2.86v1.557c.002 1.703.014 2.024.051 2.86.046 1.024.25 1.975.971 2.707.722.731 1.661.937 2.673.983.824.038 1.14.05 2.822.052h1.537c1.682-.002 1.998-.014 2.823-.052 1.011-.046 1.95-.252 2.672-.983.722-.732.925-1.683.971-2.708.038-.835.05-1.156.051-2.86V8.598c-.002-1.703-.013-2.024-.05-2.86-.047-1.024-.25-1.975-.972-2.707-.722-.732-1.66-.937-2.672-.984-.825-.038-1.141-.05-2.823-.052zm-.768 2.758c2.52 0 4.563 2.07 4.563 4.624 0 2.553-2.043 4.623-4.563 4.623-2.52 0-4.564-2.07-4.564-4.623 0-2.553 2.043-4.624 4.564-4.624zm0 1.623c-1.636 0-2.963 1.343-2.963 3 0 1.658 1.326 3.002 2.963 3.002 1.636 0 2.962-1.343 2.962-3.001S11.26 6.375 9.623 6.375zm4.744-2.886c.589 0 1.067.483 1.067 1.08 0 .597-.478 1.08-1.067 1.08a1.074 1.074 0 01-1.066-1.08c0-.597.477-1.08 1.066-1.08z"/></svg>
