<svg xmlns="http://www.w3.org/2000/svg" viewBox="0 0 16 14"><path d="M15.962 2.264c-.57.239-1.162.43-1.778.502A3.158 3.158 0 0015.56 1.02a6.14 6.14 0 01-1.967.765A3.156 3.156 0 0011.293.78c-1.73 0-3.104 1.412-3.104 3.134 0 .24.023.479.07.718-2.582-.12-4.881-1.388-6.398-3.277a3.203 3.203 0 00-.426 1.578c0 1.1.545 2.058 1.374 2.608a3.282 3.282 0 01-1.398-.383v.048c0 1.53 1.066 2.799 2.488 3.086a3.16 3.16 0 01-.83.12c-.189 0-.402-.025-.592-.048a3.122 3.122 0 002.915 2.176 6.258 6.258 0 01-3.863 1.34 7.11 7.11 0 01-.734-.048 8.967 8.967 0 004.763 1.388c5.735 0 8.863-4.785 8.863-8.947v-.407a6.578 6.578 0 001.54-1.602z"/></svg>
