<svg xmlns="http://www.w3.org/2000/svg" viewBox="0 0 18 12"><path d="M16.903 2.726s-.138-1.192-.692-1.683C15.588.34 14.896.34 14.551.34c-2.354-.14-5.815-.14-5.815-.14s-3.46 0-5.814.14c-.346.07-1.038.07-1.661.702-.484.49-.692 1.683-.692 1.683S.43 4.058.43 5.46v1.263c0 1.332.139 2.734.139 2.734s.138 1.192.692 1.683c.623.701 1.454.631 1.8.701 1.315.14 5.675.14 5.675.14s3.46 0 5.814-.21c.346-.07 1.038-.07 1.661-.7.485-.492.692-1.684.692-1.684s.139-1.332.139-2.735V5.39c0-1.332-.139-2.664-.139-2.664zm-9.897 5.54V3.566l4.499 2.384-4.5 2.314z"/></svg>
